<svg width="19" height="24" viewBox="0 0 19 24" fill="none" xmlns="http://www.w3.org/2000/svg">
<path d="M15.8897 12.5153C15.9222 15.9712 18.9618 17.1212 18.9955 17.1359C18.9698 17.217 18.5098 18.7748 17.3941 20.3839C16.4296 21.775 15.4286 23.1611 13.8517 23.1898C12.3022 23.2179 11.804 22.283 10.0325 22.283C8.26156 22.283 7.70799 23.1611 6.24124 23.2179C4.71913 23.2748 3.56006 21.7136 2.58754 20.3276C0.600327 17.4924 -0.918316 12.3159 1.12084 8.82177C2.13385 7.08655 3.94417 5.98774 5.90911 5.95957C7.40379 5.93143 8.81459 6.95191 9.7283 6.95191C10.6414 6.95191 12.3559 5.72469 14.1582 5.90492C14.9127 5.93592 17.0306 6.20569 18.3906 8.17016C18.281 8.2372 15.8634 9.62605 15.8897 12.5153V12.5153ZM12.9777 4.02919C13.7858 3.06388 14.3297 1.72008 14.1813 0.383011C13.0165 0.42921 11.608 1.149 10.7725 2.11378C10.0237 2.96814 9.36795 4.33559 9.54488 5.6462C10.8432 5.74532 12.1695 4.99511 12.9777 4.02919" fill="black"/>
</svg>
