<svg width="22" height="22" viewBox="0 0 22 22" fill="none" xmlns="http://www.w3.org/2000/svg">
<g clip-path="url(#clip0_662_807)">
<path d="M5.54166 13.059L4.81765 15.7619L2.17137 15.8179C1.38053 14.351 0.931946 12.6727 0.931946 10.8893C0.931946 9.16474 1.35136 7.53844 2.0948 6.10645H2.09536L4.45129 6.53837L5.48333 8.88016C5.26732 9.50989 5.14959 10.1859 5.14959 10.8893C5.14967 11.6527 5.28796 12.3842 5.54166 13.059Z" fill="#FBBB00"/>
<path d="M21.5504 8.9465C21.6698 9.57562 21.7321 10.2253 21.7321 10.8894C21.7321 11.6339 21.6538 12.3602 21.5047 13.0608C20.9984 15.4448 19.6755 17.5265 17.843 18.9997L17.8424 18.9991L14.875 18.8477L14.455 16.2259C15.671 15.5128 16.6213 14.3968 17.1219 13.0608H11.5607V8.9465H17.203H21.5504Z" fill="#518EF8"/>
<path d="M17.8421 18.9991L17.8427 18.9997C16.0604 20.4323 13.7964 21.2894 11.3318 21.2894C7.37123 21.2894 3.92782 19.0757 2.17123 15.818L5.54152 13.0592C6.4198 15.4031 8.68094 17.0717 11.3318 17.0717C12.4712 17.0717 13.5387 16.7637 14.4546 16.226L17.8421 18.9991Z" fill="#28B446"/>
<path d="M17.9703 2.88367L14.6011 5.64195C13.6531 5.04939 12.5325 4.70708 11.332 4.70708C8.6211 4.70708 6.31767 6.45221 5.48339 8.88025L2.09539 6.10653H2.09482C3.82569 2.76939 7.31253 0.489395 11.332 0.489395C13.8554 0.489395 16.1691 1.38826 17.9703 2.88367Z" fill="#F14336"/>
</g>
<defs>
<clipPath id="clip0_662_807">
<rect width="20.8" height="20.8" fill="white" transform="translate(0.931946 0.48938)"/>
</clipPath>
</defs>
</svg>
